<mxfile host="app.diagrams.net" agent="Mozilla/5.0 (X11; Ubuntu; Linux x86_64; rv:136.0) Gecko/20100101 Firefox/136.0" version="26.1.0">
  <diagram name="Fig 1 - CartPole" id="KEVcmbsTopEMddDlJTIu">
    <mxGraphModel grid="1" page="1" gridSize="10" guides="1" tooltips="1" connect="1" arrows="1" fold="1" pageScale="1" pageWidth="827" pageHeight="1169" math="0" shadow="0">
      <root>
        <mxCell id="0" />
        <mxCell id="1" parent="0" />
        <mxCell id="dP_2gYsa0Pzmy6XJ4i8R-29" value="" style="rounded=0;whiteSpace=wrap;html=1;fillStyle=hatch;fillColor=#333333;strokeWidth=0.5;strokeColor=none;" vertex="1" parent="1">
          <mxGeometry x="200" y="240" width="240" height="10" as="geometry" />
        </mxCell>
        <mxCell id="dP_2gYsa0Pzmy6XJ4i8R-1" value="" style="endArrow=none;html=1;rounded=0;strokeWidth=2;" edge="1" parent="1">
          <mxGeometry width="50" height="50" relative="1" as="geometry">
            <mxPoint x="200" y="240" as="sourcePoint" />
            <mxPoint x="440" y="240" as="targetPoint" />
          </mxGeometry>
        </mxCell>
        <mxCell id="dP_2gYsa0Pzmy6XJ4i8R-4" value="" style="ellipse;whiteSpace=wrap;html=1;aspect=fixed;strokeWidth=2;fontSize=14;" vertex="1" parent="1">
          <mxGeometry x="270" y="220" width="20" height="20" as="geometry" />
        </mxCell>
        <mxCell id="dP_2gYsa0Pzmy6XJ4i8R-5" value="" style="ellipse;whiteSpace=wrap;html=1;aspect=fixed;strokeWidth=2;fontSize=14;" vertex="1" parent="1">
          <mxGeometry x="350" y="220" width="20" height="20" as="geometry" />
        </mxCell>
        <mxCell id="dP_2gYsa0Pzmy6XJ4i8R-6" value="" style="rounded=1;whiteSpace=wrap;html=1;strokeWidth=2;fontSize=14;" vertex="1" parent="1">
          <mxGeometry x="260" y="200" width="120" height="20" as="geometry" />
        </mxCell>
        <mxCell id="dP_2gYsa0Pzmy6XJ4i8R-7" value="" style="ellipse;whiteSpace=wrap;html=1;aspect=fixed;strokeWidth=2;fontSize=14;" vertex="1" parent="1">
          <mxGeometry x="315" y="195" width="10" height="10" as="geometry" />
        </mxCell>
        <mxCell id="dP_2gYsa0Pzmy6XJ4i8R-8" value="" style="rounded=0;whiteSpace=wrap;html=1;rotation=-15;strokeWidth=2;fontSize=14;" vertex="1" parent="1">
          <mxGeometry x="299" y="87" width="10" height="110" as="geometry" />
        </mxCell>
        <mxCell id="dP_2gYsa0Pzmy6XJ4i8R-9" value="" style="endArrow=none;dashed=1;html=1;rounded=0;fontSize=14;" edge="1" parent="1">
          <mxGeometry width="50" height="50" relative="1" as="geometry">
            <mxPoint x="320" y="200" as="sourcePoint" />
            <mxPoint x="320" y="90" as="targetPoint" />
          </mxGeometry>
        </mxCell>
        <mxCell id="dP_2gYsa0Pzmy6XJ4i8R-10" value="" style="endArrow=none;dashed=1;html=1;rounded=0;fontSize=14;" edge="1" parent="1">
          <mxGeometry width="50" height="50" relative="1" as="geometry">
            <mxPoint x="320" y="200" as="sourcePoint" />
            <mxPoint x="290" y="89" as="targetPoint" />
          </mxGeometry>
        </mxCell>
        <mxCell id="dP_2gYsa0Pzmy6XJ4i8R-12" value="" style="verticalLabelPosition=bottom;verticalAlign=top;html=1;shape=mxgraph.basic.arc;startAngle=0.897890866193633;endAngle=0;fontSize=14;" vertex="1" parent="1">
          <mxGeometry x="290" y="130" width="60" height="40" as="geometry" />
        </mxCell>
        <mxCell id="dP_2gYsa0Pzmy6XJ4i8R-13" value="&lt;span&gt;θ&lt;/span&gt;" style="text;html=1;align=center;verticalAlign=middle;whiteSpace=wrap;rounded=0;fontFamily=Times New Roman;fontStyle=2;fontSize=14;" vertex="1" parent="1">
          <mxGeometry x="302" y="112" width="20" height="20" as="geometry" />
        </mxCell>
        <mxCell id="dP_2gYsa0Pzmy6XJ4i8R-14" value="&lt;i&gt;l&lt;/i&gt;" style="text;html=1;align=center;verticalAlign=middle;whiteSpace=wrap;rounded=0;fontFamily=Times New Roman;fontSize=14;" vertex="1" parent="1">
          <mxGeometry x="279" y="130" width="30" height="30" as="geometry" />
        </mxCell>
        <mxCell id="dP_2gYsa0Pzmy6XJ4i8R-15" value="" style="endArrow=classic;html=1;rounded=0;exitX=0;exitY=0.5;exitDx=0;exitDy=0;fontSize=14;" edge="1" parent="1" source="dP_2gYsa0Pzmy6XJ4i8R-6">
          <mxGeometry width="50" height="50" relative="1" as="geometry">
            <mxPoint x="210" y="220" as="sourcePoint" />
            <mxPoint x="230" y="210" as="targetPoint" />
          </mxGeometry>
        </mxCell>
        <mxCell id="dP_2gYsa0Pzmy6XJ4i8R-16" value="" style="endArrow=none;dashed=1;html=1;rounded=0;entryX=0.5;entryY=1;entryDx=0;entryDy=0;exitX=0;exitY=1;exitDx=0;exitDy=0;fontSize=14;" edge="1" parent="1" target="dP_2gYsa0Pzmy6XJ4i8R-6">
          <mxGeometry width="50" height="50" relative="1" as="geometry">
            <mxPoint x="320" y="260" as="sourcePoint" />
            <mxPoint x="319.91499999999996" y="235" as="targetPoint" />
          </mxGeometry>
        </mxCell>
        <mxCell id="dP_2gYsa0Pzmy6XJ4i8R-19" value="x&#39;" style="text;html=1;align=center;verticalAlign=middle;whiteSpace=wrap;rounded=0;fontFamily=Times New Roman;fontStyle=2;fontSize=14;" vertex="1" parent="1">
          <mxGeometry x="240" y="190" width="20" height="20" as="geometry" />
        </mxCell>
        <mxCell id="dP_2gYsa0Pzmy6XJ4i8R-20" value="" style="endArrow=classic;startArrow=classic;html=1;rounded=0;fontSize=14;" edge="1" parent="1">
          <mxGeometry width="50" height="50" relative="1" as="geometry">
            <mxPoint x="340" y="210" as="sourcePoint" />
            <mxPoint x="300" y="210" as="targetPoint" />
          </mxGeometry>
        </mxCell>
        <mxCell id="dP_2gYsa0Pzmy6XJ4i8R-23" value="" style="endArrow=classic;html=1;rounded=0;fontSize=14;" edge="1" parent="1">
          <mxGeometry width="50" height="50" relative="1" as="geometry">
            <mxPoint x="297" y="115" as="sourcePoint" />
            <mxPoint x="278" y="120" as="targetPoint" />
          </mxGeometry>
        </mxCell>
        <mxCell id="dP_2gYsa0Pzmy6XJ4i8R-24" value="&lt;span&gt;θ&lt;/span&gt;&#39;" style="text;html=1;align=center;verticalAlign=middle;whiteSpace=wrap;rounded=0;fontFamily=Times New Roman;fontStyle=2;fontSize=14;" vertex="1" parent="1">
          <mxGeometry x="270" y="100" width="20" height="20" as="geometry" />
        </mxCell>
        <mxCell id="dP_2gYsa0Pzmy6XJ4i8R-25" value="" style="ellipse;whiteSpace=wrap;html=1;aspect=fixed;strokeWidth=2;fontSize=14;" vertex="1" parent="1">
          <mxGeometry x="272" y="60" width="30" height="30" as="geometry" />
        </mxCell>
        <mxCell id="dP_2gYsa0Pzmy6XJ4i8R-26" value="m" style="text;html=1;align=center;verticalAlign=middle;whiteSpace=wrap;rounded=0;fontFamily=Times New Roman;fontStyle=2;fontSize=14;" vertex="1" parent="1">
          <mxGeometry x="272" y="58" width="30" height="30" as="geometry" />
        </mxCell>
        <mxCell id="dP_2gYsa0Pzmy6XJ4i8R-28" value="&lt;i&gt;A&lt;/i&gt;" style="text;html=1;align=center;verticalAlign=middle;whiteSpace=wrap;rounded=0;fontFamily=Times New Roman;fontSize=14;" vertex="1" parent="1">
          <mxGeometry x="330" y="195" width="30" height="30" as="geometry" />
        </mxCell>
        <mxCell id="dP_2gYsa0Pzmy6XJ4i8R-31" value="x" style="text;html=1;align=center;verticalAlign=middle;whiteSpace=wrap;rounded=0;fontFamily=Times New Roman;fontStyle=2;fontSize=14;" vertex="1" parent="1">
          <mxGeometry x="316" y="246" width="20" height="20" as="geometry" />
        </mxCell>
      </root>
    </mxGraphModel>
  </diagram>
</mxfile>
